<?xml version="1.0" encoding="UTF-8" standalone="no"?>
<!-- Created with Inkscape (http://www.inkscape.org/) -->
<svg xmlns:rdf="http://www.w3.org/1999/02/22-rdf-syntax-ns#" xmlns="http://www.w3.org/2000/svg" xmlns:cc="http://web.resource.org/cc/" xmlns:dc="http://purl.org/dc/elements/1.1/" xmlns:svg="http://www.w3.org/2000/svg" xmlns:inkscape="http://www.inkscape.org/namespaces/inkscape" xmlns:sodipodi="http://sodipodi.sourceforge.net/DTD/sodipodi-0.dtd" xmlns:ns1="http://sozi.baierouge.fr" xmlns:xlink="http://www.w3.org/1999/xlink" id="svg2241" viewBox="0 0 117.35 221.68" version="1.0" inkscape:version="0.91 r13725">
  <g id="layer1" transform="translate(-401.33 -252.95)">
    <path id="path2967" style="fill-rule:evenodd;fill:#000000" d="m410.36 471.42c-1.27 0.37-3.51 0.76-4.2-0.2-1.64-2.3-2.37-6.41-2.4-9.64-0.03-4.1 2.49-8.67 2.15-12.54-0.98-0.6-3.47-3.34-4.14-5.6 0.02-2.76-0.8-6.01-0.25-8.99 0.67-3.64 1.8-7.74 2.79-10.84-1.81-4.56-1-9.48-0.35-10.44 0.27-0.39-1.17-0.62-1.1-1.05 0.36-0.67 1.34-2.37 1.5-3.84 0.04-0.36-0.81-0.76-0.6-1 0.24-0.27 1.92-2.31 2.2-3.05 3.65-1.36 3.94-2.3 5.8-4.75 0.66-2.74 1.41-7.36 5.09-8.89 3.58-1.49 8.69-1.42 12.49-2.3 2.13-0.49 3.73 0.45 4 0.4-0.39-2.09 1.48-3.95 1.79-4.04-0.37-0.53-0.58-1.09-0.59-1.75-0.01-0.27 0.02-0.59 0.79-0.8 0.76-0.75 3.22-3.9 3.85-5.89-0.34-1.37-1.58-8.78-2.05-10.74-0.42-1.81-1.51-6.87-1.2-9.54-2.74-2.98-2.3-6.56-2.99-9.6-1.17-2.86-2.87-5.85-4.1-8.04-1.52-2.71-5.67-4.94-6.96-5.09 0.02-0.61 0.25-7.7 0.27-7.85-0.72-0.89-5.58-6.26-6.96-10.53-1.62-4.98-3.01-4.09-4.03-6.25-5.77-12.12-4.2-22.95-6.6-34.42-0.14-0.7-0.92-1.46-1-2.15-0.21-1.98 0.13-3.97 0.6-5.59 0.5-1.69 2.29-3.89 1.8-5-0.96-2.18-1.95-5.17-2.2-7.19-0.1-0.85 0.71-1.84 1.8-0.4 1.06 1.4 1.03 1.93 1.18 2.7 0.79 1.22 1.05 3 1.42 4.49 0.03 0.15 0.32 0.32 0.4 0.2 1.53-2.35 1.81-5.69 3.07-7.74 0.75-1.22 1.48 0.01 1.53 0.55 0.22 2.65-0.94 5.75-0.88 5.9 0.31-0.35 0.52-1.54 0.6-1.73 0.15-0.34 0.06-0.36 0.23-1.2 0.36-1.89 0.03-1.17 0.54-2.37 0.26-0.58 1.71-0.35 1.7 0.8 0 0.7-0.31 1.76-0.2 2.6 0.3 0.23 0.58 1.44 0.63 2.22 0.12 2.27-0.13 4.12-0.1 6.17 0 0.5 0.44 1.1 0.1 1.82-0.96 2.04-2.78 3.36-4.25 5.37-0.25 0.34-0.67 1.4-0.57 1.8 1.03 4.13 1.78 8.57 3.79 12.39 2.61 4.93 4.4 8.85 5.43 11.1 1.14 2.52 1.21 3.62 1.77 5.88 0.72 2.97 3.09 4.97 4.87 7.32 0.08 0.12 0.37 0.02 0.45 0.13 0.52 0.75 1.09 2 1.67 2.74 0.15 0.19 0.79 0.41 0.92 0.6 0.53 0.74 0.49 1.07 1.05 1.83 0.24 0.31 0.88 0.55 1.23 0.77 0.38 0.25 0.57 0.81 1 1 0.42 0.19 0.98 0.17 1.4 0.8 0.08 0.12 0.08 0.31 0.19 0.4 1.45 1.16 3.33 1.81 4.6 3.2 0.29 0.31 0.33 0.97 1.2 1.19 1.43 0.37 3.02 2.72 3.8 2.6-0.11-0.99-1.09-2.91 0.2-3.19 0.41-0.11-0.32-1.19-0.25-1.33-0.21 0.34-0.07 0.2-0.45 0.2-0.07-0.35-0.36-2.74-0.5-3.07-0.06-0.14-0.33 0.21-0.38 0.07-0.15-0.45-0.04-1.42-0.22-1.87-0.09-0.22-0.37 0.22-0.43 0-0.07-0.31-0.77-0.92-0.75-1.25 0.04-0.47 0.8-1.32 0.98-1.75 2.04-4.81 5.43-9.13 11.99-9.59 1.08-0.07 2.3 0.54 3.39 0.4 1.04-0.13 2.03-1.1 3-1.2-0.22 0.24 0.01 0.32-0.2 0.68 0.55 0.01 2.27 0.42 2.4 0.92l-0.3 0.4c1.75 0.81 2.93 1.91 4.17 2.97l-0.52 0.23 1.94 2.62 0.3 1.97c0.11 0.71 0.65 1.31 0.8 2 0.12 0.51 0.06 1.07 0 1.6-0.07 0.61-0.26 1.2-0.4 1.8-0.19 0.87-0.37 1.74-0.6 2.6-0.1 0.4-0.15 0.83-0.07 1.32 0.65-0.05 1.8-0.99 2.87-1.12 0.59-0.07 0.14 0.92 0.75 0.95 2.88-1.46 3.33-0.73 3.85-0.75 0.74-1.45 1.62-1.83 2.62-1.83 1.64 0 4.01-1.42 4.97-2.07 1.1-0.75 6.92-3.9 8.28-5.01l0.28 0.33c1.79-1.68 3.62-3.14 5.18-5.71 5.34-8.85 10.76-19.41 13.63-29.27 0.56-1.91-2.82-3.32-3.79-5.2-0.96-1.85-1.16-4.08-2-5.99-0.36-0.82-1.23-1.32-1.52-1.88-0.21-0.39 0.52-1.04 1.12-0.92 0.23 0.04 0.32 0.12 0.57 0.27-0.59-0.52-0.81-1.67-0.57-2.67 0.3-1.26 0.96-2.82 1.57-3.87 0.2-0.34 0.63-0.79 1-0.87 0.47-0.1 1.03 0.3 1.03 0.75-0.01 0.19 0.08 0.45 0.2 0.6 0.23-0.99 1.03-1.97 1.59-2.45 0.42-0.36 1.77-0.03 1.55 0.6-0.3 0.87-1.89 4.37-1.15 4.64 0.55-1.1 1.45-3.89 2.4-4.99 0.68-0.79 1.89 0.47 1.63 1.25-0.48 1.39-1.55 2.87-1.63 4.54-0.06 1.26 0.66 3.61 1 3.8 0.2-0.77 0.35-2.35 0.7-3.17 0.43-0.99 0.47-2.33 0.87-3 0.73-1.2 1.37-0.02 1.53 0.35 0.18 0.43-0.1 1.69-0.3 2.42-0.13 0.47-0.38 0.92-0.4 1.4-0.05 1.05-0.35 2.28 0.2 3.2 1.97 3.29 2.44 6.87 2.12 10.46-0.08 0.86-0.79 1.64-0.92 2.53-1.67 11.14-5.36 21.41-9.19 30.77-0.37 0.89-0.31 1.99-0.8 2.79-0.7 1.13-2.18 1.84-3.08 2.86-3.45 3.9-8.01 7.85-10.51 9.93l0.4 7.99c-0.24 0.82-2.1 0.38-3 0.8-0.37 0.18-0.47 0.73-0.8 1-1.8 1.53-3.99 2.69-5.59 4.4-1.53 1.62-3.17 3.47-3.8 5.59-1.57 5.28-2.26 11.05-2.8 16.59-0.19 1.98 0.73 4.03 0.6 5.99-0.07 1.17-1.01 2.26-1.2 3.4-0.08 0.52 0.38 1.05 0.4 1.6 0.05 0.99-0.28 2.02-0.2 2.99 0.05 0.56 0.51 1.05 0.6 1.6 0.11 0.65-0.07 1.35 0 2 0.06 0.48 0.12 1.02 0.4 1.4 0.79 1.08 1.65 2.39 2.8 3 1.25 0.66 3.55-0.11 4.4 0.8 1.01 1.08 0.76 3.47 1.2 5.19 0.43 1.74 0.88 3.48 1.39 5.2 0.15 0.48 0.17 1.16 0.6 1.4 4.23 2.29 10.24 3.39 13.39 6.19 1.12 0.99-1.12 3.66-0.6 5.19 0.68 2 3.21 3.43 4.2 5.4 0.55 1.1 0.01 2.63 0.4 3.8 0.27 0.83 1.56 1.34 1.6 2.19 0.09 2.42-1.08 5.06-1.2 7.6-0.08 1.46 0.85 3.07 0.6 4.39-0.15 0.81-1.32 1.25-1.8 2-2.65 4.18-4.89 8.64-7.59 12.79-1.56 2.38-3.17 5.01-5.2 6.79-0.77 0.68-2.63-0.16-3.2 0.6-1.16 1.57-1.35 4.26-2 6.4-1.15 3.85-1.16 9.27-3.39 11.59-1.99 2.06-5.93 1.21-7.2-0.4-2.35-3.01-3.47-9.97-3.38-13.96 0.05-2.27 2.54-3.45 2.57-5.67 0.04-2.31-1.9-4.17-2.09-6.57-0.21-2.79-0.15-5.87 1.11-8.17 0.67-1.23 2.76-1.86 4.19-2 1.23-0.12 2.59 1.1 3.8 1.2 0.39 0.03 0.88-0.45 1-0.8 0.15-0.45-0.29-1.08-0.2-1.6 0.31-1.81 0.78-3.7 1.4-5.39 0.11-0.31 0.65-0.34 0.8-0.6 0.11-0.21 0.18-0.67 0-0.8-0.49-0.34-1.44-0.28-2-0.6-0.24-0.14-0.13-0.7-0.4-0.8-4.39-1.63-9.27-2.46-13.59-4.4-4.28-1.92-7.9-5.5-12.19-7.19-2.3-0.91-5.08-0.77-7.59-0.6-3.55 0.23-7.06 1.2-10.59 1.8-3.93 0.66-7.94 1.95-11.79 2-1.35 0.01-2.7-1.8-3.8-1.8-0.56 0-0.87 1.15-1.19 1.8-0.68 1.35-1.11 2.87-1.8 4.19-0.11 0.21-0.53 0.18-0.6 0.4-0.47 1.51-1.18 3.26-1 4.8 0.16 1.4 1.69 2.6 2 3.99 0.22 1.01-0.3 2.13-0.4 3.2-0.1 1 0.01 2.03-0.2 3-0.19 0.83-0.96 1.13-0.8 1.9 0.3 1.43 1.9 2.37 1.85 3.84-0.09 2.46-0.54 5.86-2.45 7.7-1 0.96-2.26 1.71-2.2 3.14 0.06 1.54 0.83 3.13 0.8 4.6-0.03 1.93-0.37 4.04-1.4 5.59-1.67 2.52-4.17 5.37-6.99 6.2z"/>
  </g>
  <metadata>
    <rdf:RDF>
      <cc:Work>
        <dc:format>image/svg+xml</dc:format>
        <dc:type rdf:resource="http://purl.org/dc/dcmitype/StillImage"/>
        <cc:license rdf:resource="http://creativecommons.org/licenses/publicdomain/"/>
        <dc:publisher>
          <cc:Agent rdf:about="http://openclipart.org/">
            <dc:title>Openclipart</dc:title>
          </cc:Agent>
        </dc:publisher>
        <dc:title>Jumper Silhouette</dc:title>
        <dc:date>2007-11-10T19:15:39</dc:date>
        <dc:description>Trace of an actual picture of a swing dancer jumping.</dc:description>
        <dc:source>https://openclipart.org/detail/8123/jumper-silhouette-by-dmenest</dc:source>
        <dc:creator>
          <cc:Agent>
            <dc:title>dmenest</dc:title>
          </cc:Agent>
        </dc:creator>
        <dc:subject>
          <rdf:Bag>
            <rdf:li>dance</rdf:li>
            <rdf:li>dancer</rdf:li>
            <rdf:li>jump</rdf:li>
            <rdf:li>man</rdf:li>
            <rdf:li>silhouette</rdf:li>
          </rdf:Bag>
        </dc:subject>
      </cc:Work>
      <cc:License rdf:about="http://creativecommons.org/licenses/publicdomain/">
        <cc:permits rdf:resource="http://creativecommons.org/ns#Reproduction"/>
        <cc:permits rdf:resource="http://creativecommons.org/ns#Distribution"/>
        <cc:permits rdf:resource="http://creativecommons.org/ns#DerivativeWorks"/>
      </cc:License>
    </rdf:RDF>
  </metadata>
</svg>
