<?xml version="1.0" encoding="UTF-8" standalone="no"?>
<!-- Created with Inkscape (http://www.inkscape.org/) -->

<svg
   xmlns:dc="http://purl.org/dc/elements/1.1/"
   xmlns:cc="http://creativecommons.org/ns#"
   xmlns:rdf="http://www.w3.org/1999/02/22-rdf-syntax-ns#"
   xmlns:svg="http://www.w3.org/2000/svg"
   xmlns="http://www.w3.org/2000/svg"
   xmlns:sodipodi="http://sodipodi.sourceforge.net/DTD/sodipodi-0.dtd"
   xmlns:inkscape="http://www.inkscape.org/namespaces/inkscape"
   width="151.50252"
   height="253.3875"
   id="svg3964"
   version="1.1"
   inkscape:version="0.48.5 r10040"
   sodipodi:docname="New document 3">
  <defs
     id="defs3966">
    <inkscape:path-effect
       effect="skeletal"
       id="path-effect5529"
       is_visible="true"
       pattern="m 0.49527115,0.49527115 31.01496985,0 0,6.39293995 -31.01496985,0 z"
       copytype="repeated_stretched"
       prop_scale="1"
       scale_y_rel="false"
       spacing="0"
       normal_offset="0"
       tang_offset="0"
       prop_units="false"
       vertical_pattern="false"
       fuse_tolerance="0" />
  </defs>
  <sodipodi:namedview
     id="base"
     pagecolor="#ffffff"
     bordercolor="#666666"
     borderopacity="1.0"
     inkscape:pageopacity="0.0"
     inkscape:pageshadow="2"
     inkscape:zoom="0.77539845"
     inkscape:cx="97.75526"
     inkscape:cy="260.01609"
     inkscape:document-units="px"
     inkscape:current-layer="layer1"
     showgrid="false"
     fit-margin-top="10"
     fit-margin-left="10"
     fit-margin-right="10"
     fit-margin-bottom="10" />
  <metadata
     id="metadata3969">
    <rdf:RDF>
      <cc:Work
         rdf:about="">
        <dc:format>image/svg+xml</dc:format>
        <dc:type
           rdf:resource="http://purl.org/dc/dcmitype/StillImage" />
        <dc:title></dc:title>
      </cc:Work>
    </rdf:RDF>
  </metadata>
  <g
     inkscape:label="Layer 1"
     inkscape:groupmode="layer"
     id="layer1"
     transform="translate(-123.71624,-394.8125)">
    <path
       style="fill:#a8a8a8;fill-opacity:1;stroke:#000000;stroke-width:2;stroke-linecap:round;stroke-linejoin:round;stroke-miterlimit:10;stroke-opacity:1"
       d="m 155.96875,575.5 c -0.58348,0.27806 -1.17111,0.54446 -1.75,0.84375 -5.66343,2.94407 -10.73869,7.02365 -14.8125,11.96875 -2.30671,2.59886 -3.54582,5.66405 -4.125,8.59375 -0.28783,1.20592 -0.47155,2.47431 -0.53125,3.75 -0.11762,2.51398 0.24858,5.09416 1.25,7.59375 2.02746,4.51126 5.03873,8.61717 8.90625,11.84375 3.19627,2.60004 6.62908,4.4911 9.78125,6.3125 0.0919,0.0444 0.158,0.081 0.25,0.125 9.69823,4.64161 20.02372,7.59727 30.5625,9.1875 10.51675,1.58692 21.24388,1.82615 31.78125,1.0625 0.0217,-0.002 0.072,0.002 0.0937,0 6.47944,-0.74395 13.07884,-1.62785 19.625,-3.4375 3.9645,-1.11642 7.83849,-2.61754 11.53125,-4.5 2.90125,-1.47896 5.71865,-3.19005 8.34375,-5.15625 1.54605,-1.4081 3.29677,-3.07566 4.8125,-5.3125 1.8994,-3.16129 2.65943,-6.78185 2.375,-10.28125 -0.69722,-2.76947 -1.9347,-5.47135 -3.6875,-7.84375 -0.62779,-0.84972 -1.29537,-1.64993 -2.0625,-2.40625 -2.31197,-2.09597 -4.7459,-3.46593 -6.71875,-4.8125 -6.47872,-3.42093 -13.40631,-5.88819 -20.5,-7.46875 -1.90167,-0.42371 -3.79873,-0.76132 -5.71875,-1.0625 -8.67359,-1.33402 -17.41155,-1.53333 -26,-1.3125 0.053,2.13032 0.10325,4.24468 0.15625,6.375 8.39194,-0.20117 16.73182,-0.0155 24.84375,1.25 1.76646,0.26975 3.53784,0.58895 5.28125,0.96875 6.50334,1.41677 12.80199,3.60405 18.625,6.6875 2.19362,1.54185 4.2714,2.65794 5.65625,4.03125 0.49501,0.42811 0.93294,0.91091 1.34375,1.4375 1.14697,1.47025 1.97886,3.28051 2.5,5.1875 0.12292,2.10167 -0.33265,4.24899 -1.46875,5.8125 -0.72911,1.2573 -2.07879,2.41128 -3.5625,3.84375 -2.26505,1.70446 -4.69999,3.21627 -7.25,4.5 -3.2457,1.63396 -6.68702,2.93061 -10.21875,3.90625 -5.91119,1.66695 -12.16347,2.46932 -18.53125,3.21875 -0.0213,0.003 -0.0412,-0.003 -0.0625,0 -10.08242,0.7151 -20.26741,0.52981 -30.1875,-0.9375 -9.94088,-1.47038 -19.60447,-4.20959 -28.5625,-8.5625 -0.085,-0.0413 -0.1651,-0.0834 -0.25,-0.125 -3.18255,-1.87419 -6.26372,-3.51951 -8.71875,-5.59375 -3.04374,-2.48982 -5.43365,-5.80415 -7.09375,-9.46875 -0.63013,-1.38853 -0.82496,-3.03457 -0.71875,-4.75 0.0539,-0.87048 0.1915,-1.77507 0.375,-2.65625 0.60515,-2.31459 1.3824,-4.45745 2.71875,-5.8125 3.53822,-4.30818 7.97911,-7.86818 12.9375,-10.46875 0.50095,-0.2644 1.0173,-0.53396 1.53125,-0.78125 l -2.75,-5.75 z"
       id="path5744"
       inkscape:connector-curvature="0" />
    <path
       style="fill:#a8a8a8;fill-opacity:1;stroke:#000000;stroke-width:2;stroke-linecap:round;stroke-linejoin:round;stroke-miterlimit:10;stroke-opacity:1"
       d="m 144.8125,564.84375 c -0.13585,0.11024 -0.2712,0.23083 -0.40625,0.34375 -3.76469,3.23232 -6.64795,7.32911 -8.53125,11.8125 -1.44609,3.78055 -1.44206,7.7908 -0.5,11.375 0.67174,2.87865 1.9608,5.80251 4.09375,8.3125 0.035,0.0411 0.0583,0.0841 0.0937,0.125 4.40717,5.15737 9.85311,9.3441 15.90625,12.34375 3.79887,1.86792 7.69967,3.30067 11.5625,4.5625 1.60414,0.52401 3.23116,1.00862 4.8125,1.5 8.65972,2.1836 17.5274,3.56922 26.46875,4.0625 10.63435,0.58669 21.33291,-0.0753 31.78125,-2.1875 3.31211,-0.66957 6.62359,-1.50584 9.875,-2.46875 3.5315,-1.34599 7.34111,-2.62416 11.09375,-4.65625 3.1391,-1.7191 5.96551,-3.97012 8.34375,-6.625 0.89521,-0.99934 1.73786,-2.04844 2.5,-3.15625 1.91441,-2.64575 2.42419,-5.57647 2.21875,-8 0.10981,-2.40554 -0.45784,-5.26139 -2.375,-7.84375 -3.04176,-4.16645 -7.05085,-7.58586 -11.625,-9.96875 -0.23363,-0.1203 -0.45334,-0.22854 -0.6875,-0.34375 -3.7658,-1.85283 -7.61486,-3.08768 -11.1875,-4.34375 -6.49236,-1.78176 -13.10709,-2.97668 -19.78125,-3.65625 -10.58939,-1.07823 -21.30422,-0.82169 -31.84375,0.6875 -5.77956,0.8276 -11.50539,2.04156 -17.125,3.59375 -4.4498,1.49738 -9.04966,3.05184 -13.53125,5.1875 l 2.75,5.75 c 3.94755,-1.8994 8.24502,-3.33832 12.65625,-4.84375 5.32916,-1.47689 10.77511,-2.61542 16.25,-3.40625 9.98395,-1.44213 20.10719,-1.70469 30.09375,-0.6875 6.29422,0.6411 12.53136,1.77634 18.625,3.46875 3.64528,1.30667 7.16447,2.41382 10.25,3.96875 0.19186,0.0967 0.37409,0.18083 0.5625,0.28125 3.73654,1.9636 7.04888,4.80604 9.53125,8.21875 0.73776,0.66648 0.88209,2.27298 1.0625,4.0625 -0.13429,1.80453 -0.23699,3.40987 -0.96875,4.0625 -0.61797,0.90048 -1.30329,1.74632 -2.03125,2.5625 -1.93391,2.1683 -4.2181,4.03443 -6.75,5.4375 -2.97115,1.66969 -6.46204,2.80777 -10.09375,4.21875 -3.04187,0.91317 -6.1405,1.67955 -9.25,2.3125 -9.80916,1.9967 -19.90476,2.63406 -29.96875,2.0625 -8.4618,-0.48058 -16.89619,-1.8277 -25.125,-3.90625 -1.56613,-0.49368 -3.12184,-0.9681 -4.65625,-1.46875 -3.69493,-1.20559 -7.27892,-2.49335 -10.59375,-4.15625 -5.31227,-2.64145 -10.10965,-6.31695 -13.9375,-10.8125 -0.0216,-0.0234 -0.0411,-0.0701 -0.0625,-0.0937 -1.30779,-1.44997 -2.1448,-3.50604 -2.75,-5.71875 -0.605,-2.58427 -0.66696,-5.25137 0.25,-7.375 1.5354,-3.62115 3.81669,-6.93701 6.75,-9.40625 0.10209,-0.0889 0.20807,-0.1626 0.3125,-0.25 l -4.0625,-4.9375 z"
       id="path5728"
       inkscape:connector-curvature="0" />
    <path
       style="fill:#a8a8a8;fill-opacity:1;stroke:#000000;stroke-width:2;stroke-linecap:round;stroke-linejoin:round;stroke-miterlimit:10;stroke-opacity:1"
       d="m 161.875,537.40625 c -0.17998,0.0693 -0.35155,0.14795 -0.53125,0.21875 -7.10032,2.82755 -13.7509,6.9226 -19.375,12.1875 -2.09516,2.16173 -3.97479,4.66736 -5.34375,7.59375 -0.098,0.22066 -0.19115,0.43272 -0.28125,0.65625 -1.51048,3.74542 -1.91976,7.90001 -1.1875,11.875 1.23993,4.30895 3.41627,8.38825 6.59375,11.75 2.4575,2.48527 5.15169,4.36424 7.5625,6.125 0.0968,0.0707 0.18535,0.1171 0.28125,0.1875 8.64922,5.1855 18.18102,8.81358 27.96875,10.9375 0.59698,0.12772 1.18314,0.25749 1.78125,0.375 8.69537,1.70837 17.50044,2.33954 26.21875,2.5 1.79531,-0.037 3.60005,-0.0789 5.40625,-0.15625 6.13674,-0.26271 12.31742,-0.81932 18.46875,-2 4.45008,-0.87264 8.86408,-2.09449 13.125,-3.71875 3.77966,-1.44081 7.43421,-3.20814 10.9375,-5.28125 1.71211,-1.30487 3.84737,-2.68748 5.875,-4.75 2.55208,-2.83903 4.11534,-6.29829 4.75,-9.84375 0.051,-1.5016 -0.10446,-3.04059 -0.4375,-4.53125 -0.4347,-1.94571 -1.18109,-3.82639 -2.3125,-5.5625 -1.59133,-2.18155 -3.42558,-3.76772 -4.9375,-5.125 -5.80965,-4.23005 -12.34084,-7.28457 -19.15625,-9.25 -0.29376,-0.0847 -0.61156,-0.13805 -0.90625,-0.21875 -6.63518,-1.78201 -13.33762,-2.66412 -19.90625,-3.375 -3.59009,-0.23259 -7.19394,-0.3231 -10.8125,-0.3125 -10.64723,0.0313 -21.35936,1.14901 -31.6875,3.78125 -6.91855,1.76327 -13.66591,4.19903 -20.125,7.40625 -2.88588,1.75194 -6.04811,3.54811 -9.03125,5.96875 l 4.0625,4.9375 c 2.29335,-1.92016 5.11769,-3.49043 8.0625,-5.3125 5.95082,-3.00324 12.24024,-5.26902 18.71875,-6.90625 9.67123,-2.44409 19.79517,-3.4832 29.9375,-3.5 3.44697,-0.006 6.87644,0.095 10.3125,0.3125 6.45096,0.71626 12.80644,1.51107 18.8125,3.15625 0.2631,0.0706 0.51917,0.14475 0.78125,0.21875 6.08034,1.71747 11.88433,4.35843 16.90625,8.03125 1.53303,1.45288 2.91983,2.58761 3.6875,3.8125 0.67015,0.8654 1.14155,1.92288 1.40625,3.0625 0.20275,0.8731 0.29155,1.79678 0.28125,2.71875 -0.47719,2.36955 -1.44901,4.62139 -3.03125,6.15625 -1.12336,1.27105 -2.93183,2.36781 -4.84375,3.875 -3.10878,1.84554 -6.3748,3.37652 -9.78125,4.65625 -3.84018,1.44267 -7.84984,2.53696 -11.90625,3.3125 -5.68,1.11171 -11.52461,1.62061 -17.4375,1.875 -1.74032,0.0749 -3.46787,0.1477 -5.21875,0.1875 -8.44755,-0.16977 -16.85902,-0.78889 -25,-2.40625 -0.55998,-0.11125 -1.09874,-0.22276 -1.65625,-0.34375 -9.07287,-1.93922 -17.85579,-5.22721 -25.75,-9.96875 -0.0982,-0.0738 -0.2146,-0.14575 -0.3125,-0.21875 -2.43889,-1.81766 -4.74016,-3.40339 -6.46875,-5.25 -2.35313,-2.36146 -4.01217,-5.48078 -5,-8.8125 -0.49257,-2.64591 -0.18799,-5.46429 0.875,-7.9375 0.0634,-0.1476 0.1187,-0.29256 0.1875,-0.4375 0.89864,-2.04461 2.34678,-3.93494 4.03125,-5.71875 4.94024,-4.64247 10.85827,-8.26388 17.21875,-10.78125 0.16167,-0.0648 0.33763,-0.1241 0.5,-0.1875 l -2.3125,-5.96875 z"
       id="path5710"
       inkscape:connector-curvature="0" />
    <path
       style="fill:#a8a8a8;fill-opacity:1;stroke:#000000;stroke-width:2;stroke-linecap:round;stroke-linejoin:round;stroke-miterlimit:10;stroke-opacity:1"
       d="m 150.28125,525.46875 c -0.87256,0.52425 -1.73752,1.09258 -2.59375,1.6875 -4.39731,3.09497 -8.04878,7.14863 -10.6875,11.78125 -1.87547,3.13352 -2.38562,6.54836 -2.21875,9.5625 -0.0337,1.98175 0.23066,4.13113 1,6.25 0.3768,1.03777 0.88777,2.06631 1.53125,3.0625 2.80843,4.64978 6.59663,8.68967 11.125,11.75 3.87707,2.592 7.97662,4.45044 11.8125,6.25 0.20896,0.0815 0.41563,0.13845 0.625,0.21875 9.98185,3.82662 20.41099,6.20498 31,7.28125 10.58901,1.07626 21.33796,0.86612 31.875,-0.53125 1.2734,-0.16887 2.54526,-0.35977 3.8125,-0.5625 5.18473,-1.10508 10.54946,-2.22859 15.84375,-4.1875 3.8068,-1.41318 7.44537,-3.30111 10.78125,-5.65625 1.74565,-1.23243 3.41141,-2.6115 4.96875,-4.09375 2.18895,-1.94582 3.55052,-4.38278 4.25,-6.78125 1.05775,-3.17832 1.05525,-6.80482 -0.375,-10.1875 -1.88908,-3.56625 -4.5234,-6.75239 -7.78125,-9.21875 -0.38711,-0.29306 -0.78339,-0.57132 -1.1875,-0.84375 -3.17366,-2.06131 -6.46306,-3.4077 -9.375,-4.78125 -6.45786,-2.3852 -13.10425,-4.03386 -19.84375,-5.09375 -10.52958,-1.65595 -21.26743,-1.84191 -31.875,-0.875 -4.04429,0.36865 -8.0815,0.91879 -12.0625,1.59375 -6.31537,1.3757 -12.75033,2.89396 -19.03125,5.3125 l 2.3125,5.96875 c 5.66629,-2.21312 11.73299,-3.62848 17.9375,-5 3.80694,-0.6408 7.65212,-1.17454 11.5,-1.53125 10.09243,-0.93559 20.26414,-0.8156 30.125,0.71875 6.31147,0.98207 12.50185,2.53652 18.46875,4.78125 3.05538,1.47304 5.94529,2.62547 8.28125,4.21875 0.30022,0.19476 0.61757,0.4121 0.90625,0.625 2.42948,1.79176 4.42717,4.22208 5.875,6.9375 0.74213,1.4834 0.62516,3.51801 0.0312,5.40625 -0.62685,1.67012 -1.37247,3.19783 -2.4375,4.03125 -1.33203,1.27635 -2.76685,2.42996 -4.28125,3.5 -2.89395,2.04481 -6.09437,3.70701 -9.4375,4.96875 -4.61365,1.74783 -9.62411,2.78582 -14.78125,3.90625 -1.20481,0.19301 -2.41487,0.37012 -3.625,0.53125 -10.01352,1.33325 -20.17894,1.56728 -30.1875,0.5625 -10.00855,-1.00477 -19.84304,-3.25548 -29.1875,-6.875 -0.196,-0.0759 -0.39819,-0.14165 -0.59375,-0.21875 -3.84988,-1.83493 -7.58763,-3.48099 -10.75,-5.65625 -3.77115,-2.56026 -6.96869,-6.00797 -9.34375,-9.9375 -0.35086,-0.45131 -0.60948,-0.9827 -0.8125,-1.59375 -0.41451,-1.24762 -0.58059,-2.77192 -0.6875,-4.375 0.056,-2.41428 0.24079,-4.67841 1.28125,-6.125 2.21907,-3.88929 5.28395,-7.32133 8.90625,-9.875 0.69033,-0.4944 1.41038,-0.95733 2.15625,-1.40625 l -3.25,-5.5 z"
       id="path5690"
       inkscape:connector-curvature="0" />
    <path
       style="fill:#a8a8a8;fill-opacity:1;stroke:#000000;stroke-width:2;stroke-linecap:round;stroke-linejoin:round;stroke-miterlimit:10;stroke-opacity:1"
       d="m 167.90625,499.8125 c -7.65904,2.45895 -14.98438,6.0005 -21.59375,10.6875 -1.98611,1.71854 -4.25614,3.57976 -6.28125,5.96875 -0.16143,0.19044 -0.31037,0.36488 -0.46875,0.5625 -2.71711,3.61496 -4.26535,7.8861 -4.8125,12.1875 -0.0187,4.16654 1.01066,8.41401 3.21875,12.125 1.74098,2.72434 3.84118,4.8444 5.8125,6.75 0.0765,0.0634 0.1733,0.1245 0.25,0.1875 6.23084,5.11349 13.36309,9.01712 20.90625,11.65625 2.72208,0.94072 5.46099,1.72245 8.21875,2.40625 4.35504,1.07985 8.75923,1.89193 13.09375,2.625 6.08949,0.77026 12.27499,1.23345 18.46875,1.28125 10.67722,0.0824 21.37866,-1.05411 31.6875,-3.90625 3.72684,-1.0311 7.3977,-2.27793 11,-3.78125 2.50917,-1.37422 5.41767,-2.73227 8.25,-4.78125 3.41888,-2.59813 6.03309,-6.04645 7.71875,-9.875 0.0165,-0.0374 0.0462,-0.0874 0.0625,-0.125 1.09096,-3.44194 0.85345,-7.07655 -0.46875,-10.28125 -0.97854,-2.3472 -2.46639,-4.48308 -4.40625,-6.21875 -4.4483,-3.95855 -9.62811,-7.02695 -15.125,-9.125 -0.42086,-0.16063 -0.82551,-0.28789 -1.25,-0.4375 -5.47216,-1.91442 -11.0546,-3.02754 -16.4375,-4.0625 -4.54217,-0.65328 -9.12099,-1.09236 -13.71875,-1.3125 -10.63238,-0.50907 -21.33937,0.19091 -31.78125,2.25 -7.23401,1.4265 -14.32157,3.51057 -21.1875,6.3125 -2.84435,1.39344 -5.84567,2.79876 -8.78125,4.5625 l 3.25,5.5 c 2.50933,-1.51028 5.29453,-2.82491 8.15625,-4.25 6.41137,-2.64677 13.06082,-4.59891 19.875,-5.9375 9.83587,-1.93217 19.99504,-2.55838 30.09375,-2.0625 4.36698,0.21443 8.70633,0.62862 13.03125,1.25 5.32854,1.04451 10.52825,2.02805 15.34375,3.75 0.37352,0.13247 0.75504,0.29581 1.125,0.4375 4.83221,1.85059 9.35824,4.47087 13.15625,7.875 1.18291,1.04788 2.13662,2.42917 2.78125,3.9375 0.7757,1.77848 0.96836,3.86671 0.375,5.5625 -0.0122,0.0276 -0.0502,0.035 -0.0625,0.0625 -1.25915,2.81271 -3.14679,5.3331 -5.5625,7.0625 -1.9567,1.50306 -4.51249,2.64065 -7.21875,4.15625 -3.29905,1.40528 -6.70587,2.57511 -10.15625,3.53125 -9.54414,2.64478 -19.5699,3.64438 -29.6875,3.53125 -5.86913,-0.0656 -11.75988,-0.4901 -17.59375,-1.21875 -4.24065,-0.7286 -8.44645,-1.52158 -12.53125,-2.53125 -2.58663,-0.63936 -5.14477,-1.34881 -7.625,-2.21875 -6.81941,-2.35979 -13.23227,-5.83426 -18.75,-10.375 -0.068,-0.0559 -0.15105,-0.1 -0.21875,-0.15625 -1.85889,-1.8632 -3.57355,-3.55881 -4.65625,-5.40625 -1.54982,-2.3734 -2.2902,-5.35895 -2.3125,-8.34375 0.45164,-3.21156 1.59703,-6.2873 3.53125,-8.65625 0.10235,-0.13782 0.20277,-0.27072 0.3125,-0.40625 1.37651,-1.70014 3.29492,-3.23201 5.3125,-5.03125 5.93711,-4.21974 12.62018,-7.43887 19.625,-9.65625 l -1.96875,-6.0625 z"
       id="path5672"
       inkscape:connector-curvature="0" />
    <path
       style="fill:#a8a8a8;fill-opacity:1;stroke:#000000;stroke-width:2;stroke-linecap:round;stroke-linejoin:round;stroke-miterlimit:10;stroke-opacity:1"
       d="m 156.03125,486.84375 c -1.70559,0.80263 -3.39182,1.69513 -5.0625,2.6875 -5.06619,3.03394 -9.46619,7.13261 -12.84375,11.96875 -2.11831,2.83454 -3.00005,6.02556 -3.21875,8.9375 -0.0665,0.49337 -0.0953,1.02195 -0.125,1.53125 -0.16584,2.84191 0.25181,5.89835 1.6875,8.78125 2.23547,4.38152 5.39889,8.29288 9.3125,11.375 3.01126,2.32952 6.19214,4.09907 9.21875,5.75 0.27688,0.15103 0.56987,0.28783 0.84375,0.4375 9.4578,4.36114 19.47386,7.17374 29.6875,8.71875 10.53157,1.5931 21.26798,1.84509 31.84375,1.03125 0.83087,-0.0639 1.67143,-0.14195 2.5,-0.21875 6.16022,-0.85154 12.45014,-1.80597 18.6875,-3.65625 3.41901,-1.02946 6.77206,-2.36331 9.96875,-4 3.10985,-1.59221 6.07743,-3.44593 8.84375,-5.625 1.67196,-1.50523 3.40134,-3.34034 4.78125,-5.65625 1.74668,-3.26789 2.28269,-6.98036 1.6875,-10.53125 -0.7889,-2.38815 -1.94064,-4.68818 -3.46875,-6.75 -0.90197,-1.217 -1.93689,-2.34946 -3.09375,-3.375 -2.50497,-2.06918 -5.10858,-3.42323 -7.28125,-4.78125 -6.03682,-2.91832 -12.37378,-5.07015 -18.875,-6.53125 -2.86644,-0.64421 -5.7828,-1.18139 -8.6875,-1.5625 -7.72954,-0.98984 -15.47918,-1.11902 -23.15625,-0.8125 -1.41006,0.0563 -2.81468,0.13475 -4.21875,0.21875 -8.13137,0.78778 -16.34195,1.92361 -24.40625,4.1875 -0.91512,0.2604 -1.84321,0.55262 -2.75,0.84375 l 1.96875,6.0625 c 0.82933,-0.26252 1.66208,-0.51504 2.5,-0.75 7.45308,-2.12105 15.27061,-3.18489 23.1875,-3.96875 1.36045,-0.0792 2.73497,-0.16525 4.09375,-0.21875 7.39786,-0.29119 14.74539,-0.16422 21.96875,0.78125 2.6871,0.34263 5.36048,0.82458 8,1.40625 5.98653,1.31925 11.80711,3.25358 17.28125,5.90625 2.38254,1.52842 4.64837,2.66762 6.25,4.09375 0.77368,0.61762 1.44664,1.31923 2.0625,2.125 1.04337,1.36512 1.85475,2.97434 2.4375,4.65625 0.31568,2.03601 -0.0125,4.19013 -1.0625,5.84375 -0.69784,1.34032 -1.95899,2.588 -3.375,3.9375 -2.37761,1.88401 -4.95855,3.52374 -7.6875,4.90625 -2.80516,1.42112 -5.74553,2.56465 -8.78125,3.46875 -5.59363,1.69378 -11.55373,2.57921 -17.625,3.4375 -0.7921,0.0724 -1.58137,0.127 -2.375,0.1875 -10.10184,0.76967 -20.31503,0.57239 -30.25,-0.90625 -9.63505,-1.434 -19.01741,-4.05533 -27.78125,-8.15625 -0.27379,-0.15229 -0.54065,-0.31868 -0.8125,-0.46875 -2.97168,-1.64044 -5.82143,-3.17063 -8.1875,-5.0625 -3.14772,-2.46128 -5.71264,-5.70016 -7.5625,-9.3125 -0.84782,-1.45519 -1.05115,-3.41202 -0.96875,-5.5 0.0148,-0.37419 0.0637,-0.74511 0.0937,-1.125 0.36259,-2.35132 0.80938,-4.55062 1.96875,-5.875 2.89247,-4.14761 6.67509,-7.67352 11,-10.28125 1.40397,-0.85472 2.89864,-1.62324 4.4375,-2.34375 l -2.65625,-5.8125 z"
       id="path5652"
       inkscape:connector-curvature="0" />
    <path
       style="fill:#a8a8a8;fill-opacity:1;stroke:#000000;stroke-width:2;stroke-linecap:round;stroke-linejoin:round;stroke-miterlimit:10;stroke-opacity:1"
       d="m 144.9375,476.15625 c -0.88328,0.70259 -1.74083,1.4573 -2.59375,2.28125 -3.30128,3.31769 -5.66062,7.38391 -7.03125,11.71875 -0.97374,4.14724 -0.59948,8.49538 0.96875,12.375 0.79092,1.91186 1.83655,3.71254 3.0625,5.34375 0.65265,0.8684 1.37009,1.69496 2.125,2.46875 5.12523,5.07529 11.20329,9.08523 17.78125,11.90625 2.56782,1.09219 5.17168,1.99513 7.78125,2.8125 3.44013,1.07752 6.90763,1.98894 10.3125,2.84375 6.89954,1.38025 13.93477,2.29941 21,2.6875 10.64601,0.58479 21.33818,-0.063 31.78125,-2.21875 4.6258,-0.95488 9.20007,-2.20564 13.6875,-3.78125 2.99773,-1.38208 6.37832,-2.70738 9.65625,-4.75 2.2805,-1.45879 4.31687,-3.2505 6.0625,-5.28125 1.22357,-1.42342 2.29951,-2.96018 3.21875,-4.59375 1.58593,-3.05018 1.7559,-6.30303 1.09375,-9.09375 -0.31888,-2.2865 -1.33172,-4.86429 -3.46875,-7.03125 -3.10105,-3.47259 -6.81523,-6.32341 -10.90625,-8.46875 -0.78212,-0.41014 -1.56775,-0.79889 -2.375,-1.15625 -4.51654,-1.99327 -9.12075,-3.23609 -13.5,-4.46875 -4.99859,-1.10041 -10.06541,-1.89886 -15.15625,-2.40625 -10.59157,-1.05562 -21.31129,-0.83542 -31.84375,0.6875 -7.54495,1.09095 -14.97684,2.8602 -22.21875,5.28125 -2.72239,1.1035 -5.54958,2.21636 -8.34375,3.53125 l 2.65625,5.8125 c 2.52103,-1.18036 5.1887,-2.22571 7.90625,-3.34375 6.82763,-2.29838 13.86767,-3.96634 21,-5 9.95646,-1.44295 20.07497,-1.66445 30.09375,-0.65625 4.81554,0.48458 9.61973,1.26432 14.34375,2.3125 4.39135,1.25925 8.62986,2.36667 12.4375,4.09375 0.69106,0.31229 1.39302,0.64413 2.0625,1 3.50184,1.86147 6.67181,4.31313 9.28125,7.25 0.83623,0.62082 1.25854,2.13584 1.75,3.84375 0.27684,1.83785 0.3612,3.62513 -0.375,4.6875 -0.71612,1.27073 -1.55422,2.45813 -2.5,3.5625 -1.34929,1.57556 -2.92409,2.96979 -4.65625,4.0625 -2.44728,1.59784 -5.47264,2.73596 -8.625,4.21875 -4.16297,1.48616 -8.42498,2.66895 -12.75,3.5625 -9.76402,2.01721 -19.8499,2.58003 -29.9375,2 -6.69465,-0.38494 -13.38665,-1.27974 -19.96875,-2.59375 -3.35046,-0.85291 -6.66658,-1.68687 -9.875,-2.6875 -2.43381,-0.75905 -4.80372,-1.60304 -7.09375,-2.59375 -5.86692,-2.515 -11.29463,-6.06921 -15.78125,-10.53125 -0.56219,-0.58151 -1.07895,-1.2006 -1.5625,-1.84375 -0.9083,-1.2081 -1.66218,-2.50258 -2.21875,-3.875 -1.09037,-2.60029 -1.40536,-5.58523 -0.75,-8.25 1.09575,-3.38674 2.87609,-6.52963 5.34375,-8.90625 0.61039,-0.62043 1.30634,-1.20822 2.03125,-1.78125 l -3.90625,-5.03125 z"
       id="path5634"
       inkscape:connector-curvature="0" />
    <path
       style="fill:#a8a8a8;fill-opacity:1;stroke:#000000;stroke-width:2;stroke-linecap:round;stroke-linejoin:round;stroke-miterlimit:10;stroke-opacity:1"
       d="m 161.96875,448.8125 c -3.23487,1.26142 -6.51106,2.68668 -9.6875,4.46875 -5.27923,2.97936 -9.94272,7.02717 -13.59375,11.875 -1.11299,1.35159 -1.91508,2.79789 -2.5,4.28125 -0.6007,1.52339 -0.97193,3.08237 -1.15625,4.5625 -0.61581,3.40858 -0.39409,7.23599 1.25,10.8125 2.10373,4.34709 5.11202,8.27161 8.90625,11.375 1.37886,1.10525 2.79476,2.07068 4.21875,2.96875 1.84769,1.16528 3.71985,2.21089 5.5,3.21875 7.77817,3.72458 15.94274,6.34283 24.3125,8.0625 10.43477,2.14397 21.16189,2.88796 31.78125,2.53125 2.13839,-0.0718 4.28024,-0.18716 6.40625,-0.34375 6.45952,-0.74487 13.06674,-1.63472 19.59375,-3.4375 1.85865,-0.52275 3.68935,-1.12296 5.5,-1.8125 5.03784,-1.91853 9.85091,-4.49738 14.21875,-7.75 1.53755,-1.38774 3.33429,-3.00185 4.875,-5.21875 1.93824,-3.11629 2.71795,-6.73539 2.46875,-10.21875 -0.0987,-0.47596 -0.21181,-0.93528 -0.34375,-1.40625 -0.81395,-2.9054 -2.24953,-5.69002 -4.375,-8.03125 -1.97226,-2.00083 -4.05513,-3.37733 -5.75,-4.65625 -5.10755,-3.04857 -10.60238,-5.39302 -16.25,-7.09375 -2.40325,-0.72371 -4.83011,-1.3168 -7.28125,-1.8125 -7.78138,-1.54285 -15.62474,-2.05732 -23.34375,-2.28125 -0.34738,0.003 -0.6836,-0.005 -1.03125,0 -9.02091,0.1284 -18.14402,0.81751 -27.125,2.65625 -1.50924,0.31313 -3.00502,0.64852 -4.5,1.03125 -8.22325,2.10524 -16.21044,5.27846 -23.59375,9.5625 -1.76118,1.23057 -3.6557,2.50812 -5.53125,4 l 3.90625,5.03125 c 1.53928,-1.21676 3.28936,-2.36731 5.09375,-3.65625 6.75524,-3.92745 14.12257,-6.82112 21.75,-8.75 1.38666,-0.35067 2.78552,-0.68172 4.1875,-0.96875 8.39719,-1.74387 17.05661,-2.36416 25.78125,-2.5 0.33623,-0.005 0.66361,-0.0272 1,-0.0312 7.52904,0.23457 14.97925,0.70581 22.15625,2.15625 2.2333,0.44168 4.44814,0.98189 6.625,1.625 5.11561,1.51132 10.0342,3.60011 14.5625,6.3125 1.85664,1.4495 3.5755,2.53479 4.6875,3.78125 1.32533,1.29198 2.25076,3.04748 2.8125,4.96875 0.0911,0.31144 0.1778,0.61936 0.25,0.9375 0.10895,2.10798 -0.35392,4.25138 -1.5,5.8125 -0.74296,1.24629 -2.12297,2.40842 -3.625,3.84375 -3.76862,2.8198 -7.97234,5.04874 -12.4375,6.71875 -1.60482,0.60022 -3.25,1.13651 -4.90625,1.59375 -5.89478,1.66057 -12.1197,2.46824 -18.46875,3.21875 -2.0345,0.14648 -4.08381,0.244 -6.125,0.3125 -10.13662,0.3403 -20.31352,-0.28868 -30.125,-2.28125 -7.86982,-1.59825 -15.4997,-4.06731 -22.6875,-7.5625 -1.7794,-1.02602 -3.53406,-1.9851 -5.15625,-3 -1.25021,-0.78217 -2.42842,-1.61074 -3.5,-2.5 -3.02169,-2.44436 -5.45576,-5.65866 -7.1875,-9.21875 -0.99868,-1.87635 -1.03112,-4.42549 -0.6875,-7 0.24455,-1.19437 0.5359,-2.33025 0.90625,-3.34375 0.36063,-0.98689 0.79306,-1.85739 1.40625,-2.5 3.15277,-4.19441 7.21603,-7.7115 11.78125,-10.3125 2.70658,-1.55274 5.64557,-2.80413 8.71875,-4 l -2.1875,-6.03125 z"
       id="path5616"
       inkscape:connector-curvature="0" />
    <path
       style="fill:#a8a8a8;fill-opacity:1;stroke:#000000;stroke-width:2;stroke-linecap:round;stroke-linejoin:round;stroke-miterlimit:10;stroke-opacity:1"
       d="m 150.28125,436.875 c -2.41138,1.60288 -5.02266,3.31795 -7.4375,5.5625 -3.42622,3.3028 -5.9037,7.39929 -7.40625,11.78125 -1.06135,3.95775 -0.81544,8.12362 0.5,11.875 0.0489,0.1396 0.10435,0.26779 0.15625,0.40625 1.10648,2.94319 2.78409,5.67907 5,7.96875 4.84403,4.96103 10.658,8.92744 16.9375,11.75 0.9744,0.43486 1.95373,0.83167 2.9375,1.21875 4.73513,1.86313 9.55701,3.23156 14.28125,4.5 5.50512,1.21841 11.08742,2.11385 16.71875,2.6875 10.59624,1.07941 21.33964,0.963 31.875,-0.59375 5.98209,-0.88394 11.89263,-2.21204 17.6875,-4.0625 3.32212,-1.34986 6.95092,-2.65495 10.5,-4.6875 0.7982,-0.46411 1.56369,-0.96555 2.3125,-1.5 3.12265,-2.22877 5.80556,-5.06019 7.875,-8.28125 1.89754,-2.90204 2.24878,-6.0744 1.8125,-8.71875 -0.062,-2.36785 -0.83582,-5.19592 -3.03125,-7.625 -1.73003,-2.11787 -3.72134,-4.02705 -5.875,-5.6875 -2.078,-1.60212 -4.31523,-2.97185 -6.6875,-4.09375 -4.29562,-2.02319 -8.66226,-3.26591 -12.78125,-4.5625 -3.58668,-0.86657 -7.23053,-1.57449 -10.875,-2.125 -10.52811,-1.59033 -21.24839,-1.88263 -31.84375,-0.875 -9.00566,0.85645 -17.92027,2.64974 -26.5625,5.34375 -1.45909,0.54518 -2.91944,1.07647 -4.40625,1.65625 l 2.1875,6.03125 c 1.4125,-0.54965 2.86262,-1.1066 4.3125,-1.65625 8.16308,-2.56138 16.60722,-4.24705 25.125,-5.0625 10.02135,-0.95941 20.15174,-0.6992 30.09375,0.8125 3.44158,0.5233 6.86766,1.17584 10.25,2 4.17153,1.33759 8.19615,2.49263 11.75,4.21875 2.00045,0.96673 3.90313,2.13952 5.65625,3.5 1.81696,1.41002 3.46248,3.00668 4.90625,4.78125 0.79522,0.55456 1.05718,2.16661 1.4375,4 0.0422,1.90009 0.0337,3.67047 -0.75,4.46875 -1.65858,2.58473 -3.79966,4.83906 -6.28125,6.625 -0.59509,0.42826 -1.21251,0.8497 -1.84375,1.21875 -2.75672,1.64281 -6.03885,2.79701 -9.46875,4.21875 -5.40318,1.75052 -10.94151,3.01576 -16.5625,3.84375 -9.89942,1.4582 -20.06978,1.54154 -30.125,0.5 -5.3438,-0.55352 -10.66185,-1.43399 -15.90625,-2.59375 -4.64604,-1.26458 -9.18419,-2.52518 -13.46875,-4.21875 -0.89015,-0.35185 -1.79153,-0.73252 -2.65625,-1.125 -5.58232,-2.5135 -10.70377,-5.9897 -14.9375,-10.34375 -1.574,-1.6186 -2.80763,-3.63162 -3.625,-5.78125 -0.0359,-0.0941 -0.0598,-0.18645 -0.0937,-0.28125 -0.91264,-2.54809 -1.14677,-5.36093 -0.4375,-7.84375 1.20625,-3.45194 3.13161,-6.62904 5.71875,-9.03125 1.75477,-1.71126 4.00194,-3.15428 6.375,-4.75 L 150.2813,436.875 z"
       id="path5596"
       inkscape:connector-curvature="0" />
    <path
       style="fill:#a8a8a8;fill-opacity:1;stroke:#000000;stroke-width:2;stroke-linecap:round;stroke-linejoin:round;stroke-miterlimit:10;stroke-opacity:1"
       d="m 199.3125,405.8125 c -7.7003,0.37774 -15.40793,1.38078 -22.96875,3.09375 -2.75549,0.71578 -5.55604,1.43283 -8.34375,2.28125 -3.17446,0.96613 -6.31913,2.0733 -9.4375,3.4375 -6.50536,2.8663 -12.52587,6.9451 -17.53125,12.0625 -0.33824,0.35297 -0.65495,0.72104 -0.96875,1.09375 -1.71525,2.03732 -3.07249,4.33985 -4,6.8125 -1.42783,3.83562 -1.71537,8.10991 -0.65625,12.1875 1.54575,4.47877 4.10024,8.6713 7.625,12.03125 0.33351,0.30615 0.66081,0.61883 1,0.90625 2.55995,2.16924 5.26619,3.81844 7.71875,5.4375 6.73619,3.69781 13.92529,6.5132 21.3125,8.5 2.57395,0.69227 5.16589,1.2899 7.78125,1.78125 7.90461,1.46485 15.89742,2.06605 23.84375,2.15625 1.77208,0.0201 3.54628,0.0272 5.3125,0 7.37656,-0.40238 14.87482,-1.03919 22.3125,-2.6875 1.34813,-0.30501 2.69846,-0.65272 4.03125,-1.03125 6.48204,-1.841 12.74333,-4.56605 18.46875,-8.25 1.62371,-1.3321 3.65956,-2.78075 5.53125,-4.9375 1.38172,-1.78017 2.3549,-3.78535 3,-5.84375 0.45991,-1.46748 0.76039,-2.96909 0.875,-4.46875 -0.3719,-3.62563 -1.70865,-7.25399 -4.15625,-10.28125 -1.93325,-2.14571 -4.03002,-3.60774 -5.6875,-4.9375 -3.45854,-2.16655 -7.07988,-3.99586 -10.84375,-5.5 -3.89121,-1.55503 -7.92856,-2.76812 -12,-3.65625 -6.5074,-1.39029 -13.04787,-2.00976 -19.53125,-2.375 -1.04229,-0.0587 -2.08704,-0.10945 -3.125,-0.15625 -9.48725,-0.0698 -19.06729,0.4881 -28.53125,2.28125 -0.0856,0.0162 -0.19565,0.0149 -0.28125,0.0312 -10.0112,1.94713 -19.75898,5.36947 -28.71875,10.375 -0.35161,0.23627 -0.70168,0.4789 -1.0625,0.71875 l 3.34375,5.46875 c 0.35508,-0.23877 0.7027,-0.50303 1.0625,-0.75 8.22366,-4.60276 17.27525,-7.74319 26.59375,-9.53125 0.0801,-0.0156 0.1698,-0.0159 0.25,-0.0312 8.86651,-1.70344 18.01296,-2.2411 27.1875,-2.1875 1.01371,0.048 2.02157,0.0985 3.03125,0.15625 6.28051,0.35958 12.45621,0.94777 18.4375,2.25 3.69063,0.78534 7.32453,1.87749 10.8125,3.25 3.37382,1.3276 6.60874,2.92833 9.65625,4.84375 1.83285,1.53092 3.55007,2.63306 4.5625,3.90625 1.49552,1.54934 2.31223,3.84232 2.625,6.21875 -0.10284,0.97243 -0.30177,1.91386 -0.59375,2.8125 -0.40956,1.26051 -1.00479,2.41209 -1.84375,3.3125 -0.96068,1.26221 -2.59795,2.38416 -4.375,3.90625 -5.02972,3.24769 -10.65627,5.62772 -16.5,7.25 -1.20154,0.33356 -2.40569,0.63702 -3.625,0.90625 -6.82147,1.54096 -13.94397,2.15199 -21.15625,2.5625 -1.70712,0.0233 -3.3902,0.02 -5.09375,0 -7.63905,-0.0898 -15.24847,-0.66942 -22.65625,-2.0625 -2.43664,-0.45156 -4.8577,-0.98864 -7.25,-1.625 -6.86589,-1.82632 -13.49669,-4.40794 -19.6875,-7.8125 -2.51023,-1.69291 -4.94008,-3.17555 -6.90625,-4.875 -0.26052,-0.22517 -0.5066,-0.45315 -0.75,-0.6875 -2.66776,-2.44179 -4.63023,-5.71501 -5.875,-9.25 -0.70696,-2.56589 -0.4615,-5.46417 0.53125,-8.0625 0.68014,-1.80051 1.65119,-3.48181 2.875,-4.9375 0.22388,-0.26631 0.44734,-0.53166 0.6875,-0.78125 4.37929,-4.49597 9.71184,-8.10419 15.5,-10.65625 2.7803,-1.23563 5.69194,-2.21854 8.6875,-3.125 2.63061,-0.79603 5.34136,-1.53347 8.0625,-2.25 7.12158,-1.61678 14.413,-2.51812 21.75,-2.875 l -0.3125,-6.40625 z"
       id="path5578"
       inkscape:connector-curvature="0" />
  </g>
</svg>
